<mxfile host="app.diagrams.net" agent="Mozilla/5.0 (Windows NT 10.0; Win64; x64) AppleWebKit/537.36 (KHTML, like Gecko) Chrome/132.0.0.0 Safari/537.36" version="26.0.14">
  <diagram name="Page-1" id="nyls5dvrkwhJZVxgHdSM">
    <mxGraphModel dx="1481" dy="1815" grid="1" gridSize="10" guides="1" tooltips="1" connect="1" arrows="1" fold="1" page="1" pageScale="1" pageWidth="850" pageHeight="1100" math="0" shadow="0">
      <root>
        <mxCell id="0" />
        <mxCell id="1" parent="0" />
        <mxCell id="Dk4IDUC--71njwpLgs7n-61" value="" style="group;rounded=1;" parent="1" vertex="1" connectable="0">
          <mxGeometry x="70" y="-80" width="380" height="80" as="geometry" />
        </mxCell>
        <mxCell id="Dk4IDUC--71njwpLgs7n-62" value="Database Item Service" style="rounded=1;whiteSpace=wrap;html=1;verticalAlign=bottom;" parent="Dk4IDUC--71njwpLgs7n-61" vertex="1">
          <mxGeometry width="380" height="80" as="geometry" />
        </mxCell>
        <mxCell id="Dk4IDUC--71njwpLgs7n-63" value="GET" style="rounded=1;whiteSpace=wrap;html=1;fontSize=8;fillColor=light-dark(#61affe, #ededed);strokeColor=none;fontColor=#FFFFFF;fontStyle=1" parent="Dk4IDUC--71njwpLgs7n-61" vertex="1">
          <mxGeometry x="10" y="10" width="40" height="40" as="geometry" />
        </mxCell>
        <mxCell id="Dk4IDUC--71njwpLgs7n-64" value="POST" style="rounded=1;whiteSpace=wrap;html=1;fontSize=8;fillColor=light-dark(#49cc90, #ededed);strokeColor=none;fontColor=#FFFFFF;fontStyle=1" parent="Dk4IDUC--71njwpLgs7n-61" vertex="1">
          <mxGeometry x="90" y="10" width="40" height="40" as="geometry" />
        </mxCell>
        <mxCell id="Dk4IDUC--71njwpLgs7n-65" value="&lt;div&gt;PUT&lt;/div&gt;" style="rounded=1;whiteSpace=wrap;html=1;fontSize=8;fillColor=light-dark(#fca130, #ededed);strokeColor=none;fontColor=#FFFFFF;fontStyle=1" parent="Dk4IDUC--71njwpLgs7n-61" vertex="1">
          <mxGeometry x="170" y="10" width="40" height="40" as="geometry" />
        </mxCell>
        <mxCell id="Dk4IDUC--71njwpLgs7n-66" value="&lt;font&gt;PATCH&lt;/font&gt;" style="rounded=1;whiteSpace=wrap;html=1;fontSize=8;fillColor=light-dark(#50e3c2, #ededed);strokeColor=none;fontColor=#FFFFFF;fontStyle=1" parent="Dk4IDUC--71njwpLgs7n-61" vertex="1">
          <mxGeometry x="250" y="10" width="40" height="40" as="geometry" />
        </mxCell>
        <mxCell id="Dk4IDUC--71njwpLgs7n-67" value="&lt;font&gt;DELETE&lt;/font&gt;" style="rounded=1;whiteSpace=wrap;html=1;fontSize=8;fillColor=light-dark(#f93e3e, #ededed);strokeColor=none;fontColor=#FFFFFF;fontStyle=1" parent="Dk4IDUC--71njwpLgs7n-61" vertex="1">
          <mxGeometry x="330" y="10" width="40" height="40" as="geometry" />
        </mxCell>
        <mxCell id="Dk4IDUC--71njwpLgs7n-1" value="" style="group;rounded=1;" parent="1" vertex="1" connectable="0">
          <mxGeometry x="70" y="320" width="380" height="80" as="geometry" />
        </mxCell>
        <mxCell id="doWZiNmxbEgXrkVORq_g-9" value="&amp;lt;T&amp;gt; Controller" style="rounded=1;whiteSpace=wrap;html=1;verticalAlign=bottom;" parent="Dk4IDUC--71njwpLgs7n-1" vertex="1">
          <mxGeometry width="380" height="80" as="geometry" />
        </mxCell>
        <mxCell id="doWZiNmxbEgXrkVORq_g-2" value="GET" style="rounded=1;whiteSpace=wrap;html=1;fontSize=8;fillColor=light-dark(#61affe, #ededed);strokeColor=none;fontColor=#FFFFFF;fontStyle=1" parent="Dk4IDUC--71njwpLgs7n-1" vertex="1">
          <mxGeometry x="10" y="10" width="40" height="40" as="geometry" />
        </mxCell>
        <mxCell id="doWZiNmxbEgXrkVORq_g-3" value="POST" style="rounded=1;whiteSpace=wrap;html=1;fontSize=8;fillColor=light-dark(#49cc90, #ededed);strokeColor=none;fontColor=#FFFFFF;fontStyle=1" parent="Dk4IDUC--71njwpLgs7n-1" vertex="1">
          <mxGeometry x="90" y="10" width="40" height="40" as="geometry" />
        </mxCell>
        <mxCell id="doWZiNmxbEgXrkVORq_g-4" value="&lt;div&gt;PUT&lt;/div&gt;" style="rounded=1;whiteSpace=wrap;html=1;fontSize=8;fillColor=light-dark(#fca130, #ededed);strokeColor=none;fontColor=#FFFFFF;fontStyle=1" parent="Dk4IDUC--71njwpLgs7n-1" vertex="1">
          <mxGeometry x="170" y="10" width="40" height="40" as="geometry" />
        </mxCell>
        <mxCell id="doWZiNmxbEgXrkVORq_g-6" value="&lt;font&gt;PATCH&lt;/font&gt;" style="rounded=1;whiteSpace=wrap;html=1;fontSize=8;fillColor=light-dark(#50e3c2, #ededed);strokeColor=none;fontColor=#FFFFFF;fontStyle=1" parent="Dk4IDUC--71njwpLgs7n-1" vertex="1">
          <mxGeometry x="250" y="10" width="40" height="40" as="geometry" />
        </mxCell>
        <mxCell id="doWZiNmxbEgXrkVORq_g-8" value="&lt;font&gt;DELETE&lt;/font&gt;" style="rounded=1;whiteSpace=wrap;html=1;fontSize=8;fillColor=light-dark(#f93e3e, #ededed);strokeColor=none;fontColor=#FFFFFF;fontStyle=1" parent="Dk4IDUC--71njwpLgs7n-1" vertex="1">
          <mxGeometry x="330" y="10" width="40" height="40" as="geometry" />
        </mxCell>
        <mxCell id="Dk4IDUC--71njwpLgs7n-17" value="API Service" style="rounded=1;whiteSpace=wrap;html=1;verticalAlign=bottom;" parent="1" vertex="1">
          <mxGeometry x="70" y="120" width="380" height="80" as="geometry" />
        </mxCell>
        <mxCell id="Dk4IDUC--71njwpLgs7n-68" style="edgeStyle=none;shape=connector;curved=0;rounded=0;orthogonalLoop=1;jettySize=auto;html=1;exitX=0.5;exitY=0;exitDx=0;exitDy=0;entryX=0.5;entryY=1;entryDx=0;entryDy=0;strokeColor=#004C99;align=center;verticalAlign=middle;fontFamily=Helvetica;fontSize=12;fontColor=default;labelBackgroundColor=default;startSize=8;endArrow=classic;endSize=8;" parent="1" source="Dk4IDUC--71njwpLgs7n-18" target="Dk4IDUC--71njwpLgs7n-63" edge="1">
          <mxGeometry relative="1" as="geometry" />
        </mxCell>
        <mxCell id="Dk4IDUC--71njwpLgs7n-18" value="Get &amp;lt;T&amp;gt; (3)" style="rounded=1;whiteSpace=wrap;html=1;fontSize=8;fillColor=light-dark(#61affe, #ededed);strokeColor=none;fontColor=#FFFFFF;fontStyle=1" parent="1" vertex="1">
          <mxGeometry x="80" y="130" width="40" height="40" as="geometry" />
        </mxCell>
        <mxCell id="Dk4IDUC--71njwpLgs7n-55" style="edgeStyle=none;shape=connector;curved=0;rounded=0;orthogonalLoop=1;jettySize=auto;html=1;exitX=0.75;exitY=0;exitDx=0;exitDy=0;entryX=0.75;entryY=0;entryDx=0;entryDy=0;strokeColor=#00994D;align=center;verticalAlign=middle;fontFamily=Helvetica;fontSize=12;fontColor=default;labelBackgroundColor=default;startSize=8;endArrow=classic;endSize=8;endFill=1;" parent="1" source="Dk4IDUC--71njwpLgs7n-19" target="Dk4IDUC--71njwpLgs7n-36" edge="1">
          <mxGeometry relative="1" as="geometry">
            <Array as="points">
              <mxPoint x="160" y="80" />
              <mxPoint x="370" y="80" />
            </Array>
          </mxGeometry>
        </mxCell>
        <mxCell id="Dk4IDUC--71njwpLgs7n-60" style="edgeStyle=none;shape=connector;curved=0;rounded=0;orthogonalLoop=1;jettySize=auto;html=1;exitX=0.75;exitY=1;exitDx=0;exitDy=0;entryX=0.75;entryY=1;entryDx=0;entryDy=0;strokeColor=#00994D;align=center;verticalAlign=middle;fontFamily=Helvetica;fontSize=12;fontColor=default;labelBackgroundColor=default;startSize=8;endArrow=classic;endSize=8;" parent="1" source="Dk4IDUC--71njwpLgs7n-19" target="Dk4IDUC--71njwpLgs7n-23" edge="1">
          <mxGeometry relative="1" as="geometry">
            <Array as="points">
              <mxPoint x="160" y="240" />
              <mxPoint x="430" y="240" />
            </Array>
          </mxGeometry>
        </mxCell>
        <mxCell id="Dk4IDUC--71njwpLgs7n-69" style="edgeStyle=none;shape=connector;curved=0;rounded=0;orthogonalLoop=1;jettySize=auto;html=1;exitX=0.5;exitY=0;exitDx=0;exitDy=0;entryX=0.5;entryY=1;entryDx=0;entryDy=0;strokeColor=#00994D;align=center;verticalAlign=middle;fontFamily=Helvetica;fontSize=12;fontColor=default;labelBackgroundColor=default;startSize=8;endArrow=classic;endSize=8;" parent="1" source="Dk4IDUC--71njwpLgs7n-19" target="Dk4IDUC--71njwpLgs7n-64" edge="1">
          <mxGeometry relative="1" as="geometry">
            <Array as="points">
              <mxPoint x="150" y="10" />
              <mxPoint x="180" y="10" />
            </Array>
          </mxGeometry>
        </mxCell>
        <mxCell id="Dk4IDUC--71njwpLgs7n-19" value="Create&lt;div&gt;&amp;lt;T&amp;gt;&lt;/div&gt;" style="rounded=1;whiteSpace=wrap;html=1;fontSize=8;fillColor=light-dark(#49cc90, #ededed);strokeColor=none;fontColor=#FFFFFF;fontStyle=1" parent="1" vertex="1">
          <mxGeometry x="130" y="130" width="40" height="40" as="geometry" />
        </mxCell>
        <mxCell id="Dk4IDUC--71njwpLgs7n-54" style="edgeStyle=none;shape=connector;curved=0;rounded=0;orthogonalLoop=1;jettySize=auto;html=1;exitX=0.75;exitY=0;exitDx=0;exitDy=0;entryX=0.5;entryY=0;entryDx=0;entryDy=0;strokeColor=#994C00;align=center;verticalAlign=middle;fontFamily=Helvetica;fontSize=12;fontColor=default;labelBackgroundColor=default;startSize=8;endArrow=classic;endSize=8;endFill=1;" parent="1" source="Dk4IDUC--71njwpLgs7n-20" target="Dk4IDUC--71njwpLgs7n-36" edge="1">
          <mxGeometry relative="1" as="geometry">
            <Array as="points">
              <mxPoint x="210" y="90" />
              <mxPoint x="360" y="90" />
            </Array>
          </mxGeometry>
        </mxCell>
        <mxCell id="Dk4IDUC--71njwpLgs7n-59" style="edgeStyle=none;shape=connector;curved=0;rounded=0;orthogonalLoop=1;jettySize=auto;html=1;exitX=0.75;exitY=1;exitDx=0;exitDy=0;entryX=0.5;entryY=1;entryDx=0;entryDy=0;strokeColor=#994C00;align=center;verticalAlign=middle;fontFamily=Helvetica;fontSize=12;fontColor=default;labelBackgroundColor=default;startSize=8;endArrow=classic;endSize=8;" parent="1" source="Dk4IDUC--71njwpLgs7n-20" target="Dk4IDUC--71njwpLgs7n-23" edge="1">
          <mxGeometry relative="1" as="geometry">
            <Array as="points">
              <mxPoint x="210" y="230" />
              <mxPoint x="420" y="230" />
            </Array>
          </mxGeometry>
        </mxCell>
        <mxCell id="Dk4IDUC--71njwpLgs7n-70" style="edgeStyle=none;shape=connector;curved=0;rounded=0;orthogonalLoop=1;jettySize=auto;html=1;exitX=0.5;exitY=0;exitDx=0;exitDy=0;entryX=0.5;entryY=1;entryDx=0;entryDy=0;strokeColor=#994C00;align=center;verticalAlign=middle;fontFamily=Helvetica;fontSize=12;fontColor=default;labelBackgroundColor=default;startSize=8;endArrow=classic;endSize=8;" parent="1" source="Dk4IDUC--71njwpLgs7n-20" target="Dk4IDUC--71njwpLgs7n-65" edge="1">
          <mxGeometry relative="1" as="geometry">
            <Array as="points">
              <mxPoint x="200" y="20" />
              <mxPoint x="260" y="20" />
            </Array>
          </mxGeometry>
        </mxCell>
        <mxCell id="Dk4IDUC--71njwpLgs7n-20" value="&lt;div&gt;Put User&lt;/div&gt;" style="rounded=1;whiteSpace=wrap;html=1;fontSize=8;fillColor=light-dark(#fca130, #ededed);strokeColor=none;fontColor=#FFFFFF;fontStyle=1" parent="1" vertex="1">
          <mxGeometry x="180" y="130" width="40" height="40" as="geometry" />
        </mxCell>
        <mxCell id="Dk4IDUC--71njwpLgs7n-53" style="edgeStyle=none;shape=connector;curved=0;rounded=0;orthogonalLoop=1;jettySize=auto;html=1;exitX=0.75;exitY=0;exitDx=0;exitDy=0;entryX=0.25;entryY=0;entryDx=0;entryDy=0;strokeColor=#009999;align=center;verticalAlign=middle;fontFamily=Helvetica;fontSize=12;fontColor=default;labelBackgroundColor=default;startSize=8;endArrow=classic;endSize=8;endFill=1;" parent="1" source="Dk4IDUC--71njwpLgs7n-21" target="Dk4IDUC--71njwpLgs7n-36" edge="1">
          <mxGeometry relative="1" as="geometry">
            <Array as="points">
              <mxPoint x="260" y="100" />
              <mxPoint x="350" y="100" />
            </Array>
          </mxGeometry>
        </mxCell>
        <mxCell id="Dk4IDUC--71njwpLgs7n-58" style="edgeStyle=none;shape=connector;curved=0;rounded=0;orthogonalLoop=1;jettySize=auto;html=1;exitX=0.75;exitY=1;exitDx=0;exitDy=0;entryX=0.25;entryY=1;entryDx=0;entryDy=0;strokeColor=#009999;align=center;verticalAlign=middle;fontFamily=Helvetica;fontSize=12;fontColor=default;labelBackgroundColor=default;startSize=8;endArrow=classic;endSize=8;" parent="1" source="Dk4IDUC--71njwpLgs7n-21" target="Dk4IDUC--71njwpLgs7n-23" edge="1">
          <mxGeometry relative="1" as="geometry">
            <Array as="points">
              <mxPoint x="260" y="220" />
              <mxPoint x="410" y="220" />
            </Array>
          </mxGeometry>
        </mxCell>
        <mxCell id="Dk4IDUC--71njwpLgs7n-71" style="edgeStyle=none;shape=connector;curved=0;rounded=0;orthogonalLoop=1;jettySize=auto;html=1;exitX=0.5;exitY=0;exitDx=0;exitDy=0;entryX=0.5;entryY=1;entryDx=0;entryDy=0;strokeColor=#009999;align=center;verticalAlign=middle;fontFamily=Helvetica;fontSize=12;fontColor=default;labelBackgroundColor=default;startSize=8;endArrow=classic;endSize=8;" parent="1" source="Dk4IDUC--71njwpLgs7n-21" target="Dk4IDUC--71njwpLgs7n-66" edge="1">
          <mxGeometry relative="1" as="geometry">
            <Array as="points">
              <mxPoint x="250" y="30" />
              <mxPoint x="340" y="30" />
            </Array>
          </mxGeometry>
        </mxCell>
        <mxCell id="Dk4IDUC--71njwpLgs7n-21" value="&lt;font&gt;Patch &amp;lt;T&amp;gt; (2)&lt;/font&gt;" style="rounded=1;whiteSpace=wrap;html=1;fontSize=8;fillColor=light-dark(#50e3c2, #ededed);strokeColor=none;fontColor=#FFFFFF;fontStyle=1" parent="1" vertex="1">
          <mxGeometry x="230" y="130" width="40" height="40" as="geometry" />
        </mxCell>
        <mxCell id="Dk4IDUC--71njwpLgs7n-52" style="edgeStyle=none;shape=connector;curved=0;rounded=0;orthogonalLoop=1;jettySize=auto;html=1;exitX=0.75;exitY=0;exitDx=0;exitDy=0;entryX=0;entryY=0;entryDx=0;entryDy=0;strokeColor=#990000;align=center;verticalAlign=middle;fontFamily=Helvetica;fontSize=12;fontColor=default;labelBackgroundColor=default;startSize=8;endArrow=classic;endSize=8;endFill=1;" parent="1" source="Dk4IDUC--71njwpLgs7n-22" target="Dk4IDUC--71njwpLgs7n-36" edge="1">
          <mxGeometry relative="1" as="geometry">
            <Array as="points">
              <mxPoint x="310" y="110" />
              <mxPoint x="340" y="110" />
            </Array>
          </mxGeometry>
        </mxCell>
        <mxCell id="Dk4IDUC--71njwpLgs7n-57" style="edgeStyle=none;shape=connector;curved=0;rounded=0;orthogonalLoop=1;jettySize=auto;html=1;exitX=0.75;exitY=1;exitDx=0;exitDy=0;entryX=0;entryY=1;entryDx=0;entryDy=0;strokeColor=#990000;align=center;verticalAlign=middle;fontFamily=Helvetica;fontSize=12;fontColor=default;labelBackgroundColor=default;startSize=8;endArrow=classic;endSize=8;" parent="1" source="Dk4IDUC--71njwpLgs7n-22" target="Dk4IDUC--71njwpLgs7n-23" edge="1">
          <mxGeometry relative="1" as="geometry">
            <Array as="points">
              <mxPoint x="310" y="210" />
              <mxPoint x="400" y="210" />
            </Array>
          </mxGeometry>
        </mxCell>
        <mxCell id="Dk4IDUC--71njwpLgs7n-72" style="edgeStyle=none;shape=connector;curved=0;rounded=0;orthogonalLoop=1;jettySize=auto;html=1;exitX=0.5;exitY=0;exitDx=0;exitDy=0;entryX=0.5;entryY=1;entryDx=0;entryDy=0;strokeColor=#990000;align=center;verticalAlign=middle;fontFamily=Helvetica;fontSize=12;fontColor=default;labelBackgroundColor=default;startSize=8;endArrow=classic;endSize=8;" parent="1" source="Dk4IDUC--71njwpLgs7n-22" target="Dk4IDUC--71njwpLgs7n-67" edge="1">
          <mxGeometry relative="1" as="geometry">
            <Array as="points">
              <mxPoint x="300" y="40" />
              <mxPoint x="420" y="40" />
            </Array>
          </mxGeometry>
        </mxCell>
        <mxCell id="Dk4IDUC--71njwpLgs7n-22" value="&lt;font&gt;Delete &amp;lt;T&amp;gt;&lt;/font&gt;" style="rounded=1;whiteSpace=wrap;html=1;fontSize=8;fillColor=light-dark(#f93e3e, #ededed);strokeColor=none;fontColor=#FFFFFF;fontStyle=1" parent="1" vertex="1">
          <mxGeometry x="280" y="130" width="40" height="40" as="geometry" />
        </mxCell>
        <mxCell id="VWwZF47ukzTrj9dWdjm5-57" style="edgeStyle=orthogonalEdgeStyle;rounded=0;orthogonalLoop=1;jettySize=auto;html=1;exitX=0.25;exitY=0;exitDx=0;exitDy=0;entryX=0;entryY=0.75;entryDx=0;entryDy=0;" edge="1" parent="1" source="Dk4IDUC--71njwpLgs7n-23" target="VWwZF47ukzTrj9dWdjm5-12">
          <mxGeometry relative="1" as="geometry">
            <Array as="points">
              <mxPoint x="410" y="100" />
              <mxPoint x="460" y="100" />
              <mxPoint x="460" y="290" />
            </Array>
          </mxGeometry>
        </mxCell>
        <mxCell id="VWwZF47ukzTrj9dWdjm5-58" style="edgeStyle=orthogonalEdgeStyle;rounded=0;orthogonalLoop=1;jettySize=auto;html=1;exitX=0.75;exitY=0;exitDx=0;exitDy=0;entryX=0;entryY=0.25;entryDx=0;entryDy=0;" edge="1" parent="1" source="Dk4IDUC--71njwpLgs7n-23" target="VWwZF47ukzTrj9dWdjm5-11">
          <mxGeometry relative="1" as="geometry">
            <Array as="points">
              <mxPoint x="430" y="110" />
              <mxPoint x="470" y="110" />
              <mxPoint x="470" y="230" />
            </Array>
          </mxGeometry>
        </mxCell>
        <mxCell id="Dk4IDUC--71njwpLgs7n-23" value="&lt;font&gt;Validate&lt;/font&gt;&lt;div&gt;&lt;font&gt;&amp;lt;T&amp;gt;&lt;/font&gt;&lt;/div&gt;" style="rounded=1;whiteSpace=wrap;html=1;fontSize=8;fillColor=#B266FF;strokeColor=none;fontColor=#FFFFFF;fontStyle=1" parent="1" vertex="1">
          <mxGeometry x="400" y="130" width="40" height="40" as="geometry" />
        </mxCell>
        <mxCell id="VWwZF47ukzTrj9dWdjm5-1" style="edgeStyle=orthogonalEdgeStyle;rounded=0;orthogonalLoop=1;jettySize=auto;html=1;exitX=0.25;exitY=1;exitDx=0;exitDy=0;entryX=0;entryY=0.5;entryDx=0;entryDy=0;" edge="1" parent="1" source="Dk4IDUC--71njwpLgs7n-36">
          <mxGeometry relative="1" as="geometry">
            <mxPoint x="480" y="270" as="targetPoint" />
            <Array as="points">
              <mxPoint x="350" y="270" />
            </Array>
          </mxGeometry>
        </mxCell>
        <mxCell id="VWwZF47ukzTrj9dWdjm5-10" style="edgeStyle=orthogonalEdgeStyle;rounded=0;orthogonalLoop=1;jettySize=auto;html=1;exitX=0.75;exitY=1;exitDx=0;exitDy=0;" edge="1" parent="1" source="Dk4IDUC--71njwpLgs7n-36">
          <mxGeometry relative="1" as="geometry">
            <mxPoint x="480" y="250" as="targetPoint" />
            <Array as="points">
              <mxPoint x="370" y="250" />
              <mxPoint x="480" y="250" />
            </Array>
          </mxGeometry>
        </mxCell>
        <mxCell id="Dk4IDUC--71njwpLgs7n-36" value="&lt;div&gt;Update Related Items&lt;/div&gt;" style="rounded=1;whiteSpace=wrap;html=1;fontSize=8;fillColor=light-dark(#FF66FF,#EDEDED);strokeColor=none;fontColor=#FFFFFF;fontStyle=1" parent="1" vertex="1">
          <mxGeometry x="340" y="130" width="40" height="40" as="geometry" />
        </mxCell>
        <mxCell id="Dk4IDUC--71njwpLgs7n-41" style="edgeStyle=none;curved=0;rounded=1;orthogonalLoop=1;jettySize=auto;html=1;exitX=0.5;exitY=0;exitDx=0;exitDy=0;entryX=0.5;entryY=1;entryDx=0;entryDy=0;fontSize=12;startSize=8;endSize=8;endArrow=classic;endFill=1;strokeColor=#004C99;" parent="1" source="doWZiNmxbEgXrkVORq_g-2" target="Dk4IDUC--71njwpLgs7n-18" edge="1">
          <mxGeometry relative="1" as="geometry" />
        </mxCell>
        <mxCell id="Dk4IDUC--71njwpLgs7n-46" style="edgeStyle=none;curved=0;rounded=0;orthogonalLoop=1;jettySize=auto;html=1;exitX=0.5;exitY=0;exitDx=0;exitDy=0;entryX=0.5;entryY=1;entryDx=0;entryDy=0;fontSize=12;startSize=8;endSize=8;endArrow=classic;endFill=1;strokeColor=#00994D;" parent="1" source="doWZiNmxbEgXrkVORq_g-3" target="Dk4IDUC--71njwpLgs7n-19" edge="1">
          <mxGeometry relative="1" as="geometry">
            <Array as="points">
              <mxPoint x="180" y="310" />
              <mxPoint x="150" y="310" />
            </Array>
          </mxGeometry>
        </mxCell>
        <mxCell id="Dk4IDUC--71njwpLgs7n-47" style="edgeStyle=none;curved=0;rounded=0;orthogonalLoop=1;jettySize=auto;html=1;exitX=0.5;exitY=0;exitDx=0;exitDy=0;entryX=0.5;entryY=1;entryDx=0;entryDy=0;fontSize=12;startSize=8;endSize=8;endArrow=classic;endFill=1;strokeColor=#994C00;" parent="1" source="doWZiNmxbEgXrkVORq_g-4" target="Dk4IDUC--71njwpLgs7n-20" edge="1">
          <mxGeometry relative="1" as="geometry">
            <Array as="points">
              <mxPoint x="260" y="300" />
              <mxPoint x="200" y="300" />
            </Array>
          </mxGeometry>
        </mxCell>
        <mxCell id="Dk4IDUC--71njwpLgs7n-48" style="edgeStyle=none;curved=0;rounded=0;orthogonalLoop=1;jettySize=auto;html=1;exitX=0.5;exitY=0;exitDx=0;exitDy=0;entryX=0.5;entryY=1;entryDx=0;entryDy=0;fontSize=12;startSize=8;endSize=8;endArrow=classic;endFill=1;strokeColor=#009999;" parent="1" source="doWZiNmxbEgXrkVORq_g-6" target="Dk4IDUC--71njwpLgs7n-21" edge="1">
          <mxGeometry relative="1" as="geometry">
            <Array as="points">
              <mxPoint x="340" y="290" />
              <mxPoint x="250" y="290" />
            </Array>
          </mxGeometry>
        </mxCell>
        <mxCell id="Dk4IDUC--71njwpLgs7n-49" style="edgeStyle=none;curved=0;rounded=0;orthogonalLoop=1;jettySize=auto;html=1;exitX=0.5;exitY=0;exitDx=0;exitDy=0;entryX=0.5;entryY=1;entryDx=0;entryDy=0;fontSize=12;startSize=8;endSize=8;endArrow=classic;endFill=1;strokeColor=#990000;" parent="1" source="doWZiNmxbEgXrkVORq_g-8" target="Dk4IDUC--71njwpLgs7n-22" edge="1">
          <mxGeometry relative="1" as="geometry">
            <Array as="points">
              <mxPoint x="420" y="280" />
              <mxPoint x="300" y="280" />
            </Array>
          </mxGeometry>
        </mxCell>
        <mxCell id="Dk4IDUC--71njwpLgs7n-85" value="" style="group;rounded=1;" parent="1" vertex="1" connectable="0">
          <mxGeometry x="70" y="-280" width="380" height="80" as="geometry" />
        </mxCell>
        <mxCell id="Dk4IDUC--71njwpLgs7n-86" value="Database Service" style="rounded=1;whiteSpace=wrap;html=1;verticalAlign=bottom;" parent="Dk4IDUC--71njwpLgs7n-85" vertex="1">
          <mxGeometry width="380" height="80" as="geometry" />
        </mxCell>
        <mxCell id="Dk4IDUC--71njwpLgs7n-87" value="GET" style="rounded=1;whiteSpace=wrap;html=1;fontSize=8;fillColor=light-dark(#61affe, #ededed);strokeColor=none;fontColor=#FFFFFF;fontStyle=1" parent="Dk4IDUC--71njwpLgs7n-85" vertex="1">
          <mxGeometry x="10" y="10" width="40" height="40" as="geometry" />
        </mxCell>
        <mxCell id="Dk4IDUC--71njwpLgs7n-88" value="POST" style="rounded=1;whiteSpace=wrap;html=1;fontSize=8;fillColor=light-dark(#49cc90, #ededed);strokeColor=none;fontColor=#FFFFFF;fontStyle=1" parent="Dk4IDUC--71njwpLgs7n-85" vertex="1">
          <mxGeometry x="90" y="10" width="40" height="40" as="geometry" />
        </mxCell>
        <mxCell id="Dk4IDUC--71njwpLgs7n-89" value="&lt;div&gt;PUT&lt;/div&gt;" style="rounded=1;whiteSpace=wrap;html=1;fontSize=8;fillColor=light-dark(#fca130, #ededed);strokeColor=none;fontColor=#FFFFFF;fontStyle=1" parent="Dk4IDUC--71njwpLgs7n-85" vertex="1">
          <mxGeometry x="170" y="10" width="40" height="40" as="geometry" />
        </mxCell>
        <mxCell id="Dk4IDUC--71njwpLgs7n-90" value="&lt;font&gt;PATCH&lt;/font&gt;" style="rounded=1;whiteSpace=wrap;html=1;fontSize=8;fillColor=light-dark(#50e3c2, #ededed);strokeColor=none;fontColor=#FFFFFF;fontStyle=1" parent="Dk4IDUC--71njwpLgs7n-85" vertex="1">
          <mxGeometry x="250" y="10" width="40" height="40" as="geometry" />
        </mxCell>
        <mxCell id="Dk4IDUC--71njwpLgs7n-91" value="&lt;font&gt;DELETE&lt;/font&gt;" style="rounded=1;whiteSpace=wrap;html=1;fontSize=8;fillColor=light-dark(#f93e3e, #ededed);strokeColor=none;fontColor=#FFFFFF;fontStyle=1" parent="Dk4IDUC--71njwpLgs7n-85" vertex="1">
          <mxGeometry x="330" y="10" width="40" height="40" as="geometry" />
        </mxCell>
        <mxCell id="Dk4IDUC--71njwpLgs7n-80" style="edgeStyle=none;shape=connector;curved=0;rounded=0;orthogonalLoop=1;jettySize=auto;html=1;exitX=0.5;exitY=0;exitDx=0;exitDy=0;strokeColor=#004C99;align=center;verticalAlign=middle;fontFamily=Helvetica;fontSize=12;fontColor=default;labelBackgroundColor=default;startSize=8;endArrow=classic;endSize=8;entryX=0.5;entryY=1;entryDx=0;entryDy=0;" parent="1" source="Dk4IDUC--71njwpLgs7n-63" edge="1" target="Dk4IDUC--71njwpLgs7n-87">
          <mxGeometry relative="1" as="geometry">
            <mxPoint x="100" y="-150" as="targetPoint" />
          </mxGeometry>
        </mxCell>
        <mxCell id="Dk4IDUC--71njwpLgs7n-81" style="edgeStyle=none;shape=connector;curved=0;rounded=0;orthogonalLoop=1;jettySize=auto;html=1;exitX=0.5;exitY=0;exitDx=0;exitDy=0;strokeColor=#00994D;align=center;verticalAlign=middle;fontFamily=Helvetica;fontSize=12;fontColor=default;labelBackgroundColor=default;startSize=8;endArrow=classic;endSize=8;entryX=0.5;entryY=1;entryDx=0;entryDy=0;" parent="1" source="Dk4IDUC--71njwpLgs7n-64" edge="1" target="Dk4IDUC--71njwpLgs7n-88">
          <mxGeometry relative="1" as="geometry">
            <mxPoint x="180" y="-150" as="targetPoint" />
          </mxGeometry>
        </mxCell>
        <mxCell id="Dk4IDUC--71njwpLgs7n-82" style="edgeStyle=none;shape=connector;curved=0;rounded=0;orthogonalLoop=1;jettySize=auto;html=1;exitX=0.5;exitY=0;exitDx=0;exitDy=0;strokeColor=#994C00;align=center;verticalAlign=middle;fontFamily=Helvetica;fontSize=12;fontColor=default;labelBackgroundColor=default;startSize=8;endArrow=classic;endSize=8;entryX=0.5;entryY=1;entryDx=0;entryDy=0;" parent="1" source="Dk4IDUC--71njwpLgs7n-65" edge="1" target="Dk4IDUC--71njwpLgs7n-89">
          <mxGeometry relative="1" as="geometry">
            <mxPoint x="260" y="-150" as="targetPoint" />
          </mxGeometry>
        </mxCell>
        <mxCell id="Dk4IDUC--71njwpLgs7n-83" style="edgeStyle=none;shape=connector;curved=0;rounded=0;orthogonalLoop=1;jettySize=auto;html=1;exitX=0.5;exitY=0;exitDx=0;exitDy=0;strokeColor=#009999;align=center;verticalAlign=middle;fontFamily=Helvetica;fontSize=12;fontColor=default;labelBackgroundColor=default;startSize=8;endArrow=classic;endSize=8;entryX=0.5;entryY=1;entryDx=0;entryDy=0;" parent="1" source="Dk4IDUC--71njwpLgs7n-66" edge="1" target="Dk4IDUC--71njwpLgs7n-90">
          <mxGeometry relative="1" as="geometry">
            <mxPoint x="340" y="-150" as="targetPoint" />
          </mxGeometry>
        </mxCell>
        <mxCell id="Dk4IDUC--71njwpLgs7n-84" style="edgeStyle=none;shape=connector;curved=0;rounded=0;orthogonalLoop=1;jettySize=auto;html=1;exitX=0.5;exitY=0;exitDx=0;exitDy=0;strokeColor=#990000;align=center;verticalAlign=middle;fontFamily=Helvetica;fontSize=12;fontColor=default;labelBackgroundColor=default;startSize=8;endArrow=classic;endSize=8;entryX=0.5;entryY=1;entryDx=0;entryDy=0;" parent="1" source="Dk4IDUC--71njwpLgs7n-67" edge="1" target="Dk4IDUC--71njwpLgs7n-91">
          <mxGeometry relative="1" as="geometry">
            <mxPoint x="420" y="-150" as="targetPoint" />
          </mxGeometry>
        </mxCell>
        <mxCell id="VWwZF47ukzTrj9dWdjm5-11" value="Groups Controller" style="rounded=1;whiteSpace=wrap;html=1;verticalAlign=bottom;" vertex="1" parent="1">
          <mxGeometry x="490" y="220" width="80" height="40" as="geometry" />
        </mxCell>
        <mxCell id="VWwZF47ukzTrj9dWdjm5-12" value="Applications Controller" style="rounded=1;whiteSpace=wrap;html=1;verticalAlign=bottom;" vertex="1" parent="1">
          <mxGeometry x="490" y="260" width="80" height="40" as="geometry" />
        </mxCell>
        <mxCell id="VWwZF47ukzTrj9dWdjm5-30" value="" style="group" vertex="1" connectable="0" parent="1">
          <mxGeometry x="640" y="119.94" width="380" height="80" as="geometry" />
        </mxCell>
        <mxCell id="VWwZF47ukzTrj9dWdjm5-17" value="API Service Base" style="rounded=1;whiteSpace=wrap;html=1;verticalAlign=bottom;" vertex="1" parent="VWwZF47ukzTrj9dWdjm5-30">
          <mxGeometry width="380" height="80" as="geometry" />
        </mxCell>
        <mxCell id="VWwZF47ukzTrj9dWdjm5-20" value="Get Item (3)" style="rounded=1;whiteSpace=wrap;html=1;fontSize=8;fillColor=light-dark(#61affe, #ededed);strokeColor=none;fontColor=#FFFFFF;fontStyle=1" vertex="1" parent="VWwZF47ukzTrj9dWdjm5-30">
          <mxGeometry x="10" y="10" width="40" height="40" as="geometry" />
        </mxCell>
        <mxCell id="VWwZF47ukzTrj9dWdjm5-21" value="Create&lt;div&gt;Item&lt;/div&gt;" style="rounded=1;whiteSpace=wrap;html=1;fontSize=8;fillColor=light-dark(#49cc90, #ededed);strokeColor=none;fontColor=#FFFFFF;fontStyle=1" vertex="1" parent="VWwZF47ukzTrj9dWdjm5-30">
          <mxGeometry x="60" y="10" width="40" height="40" as="geometry" />
        </mxCell>
        <mxCell id="VWwZF47ukzTrj9dWdjm5-22" value="&lt;div&gt;Put Item&lt;/div&gt;" style="rounded=1;whiteSpace=wrap;html=1;fontSize=8;fillColor=light-dark(#fca130, #ededed);strokeColor=none;fontColor=#FFFFFF;fontStyle=1" vertex="1" parent="VWwZF47ukzTrj9dWdjm5-30">
          <mxGeometry x="110" y="10" width="40" height="40" as="geometry" />
        </mxCell>
        <mxCell id="VWwZF47ukzTrj9dWdjm5-23" value="&lt;font&gt;Patch Item (2)&lt;/font&gt;" style="rounded=1;whiteSpace=wrap;html=1;fontSize=8;fillColor=light-dark(#50e3c2, #ededed);strokeColor=none;fontColor=#FFFFFF;fontStyle=1" vertex="1" parent="VWwZF47ukzTrj9dWdjm5-30">
          <mxGeometry x="160" y="10" width="40" height="40" as="geometry" />
        </mxCell>
        <mxCell id="VWwZF47ukzTrj9dWdjm5-24" value="&lt;font&gt;Delete Item&lt;/font&gt;" style="rounded=1;whiteSpace=wrap;html=1;fontSize=8;fillColor=light-dark(#f93e3e, #ededed);strokeColor=none;fontColor=#FFFFFF;fontStyle=1" vertex="1" parent="VWwZF47ukzTrj9dWdjm5-30">
          <mxGeometry x="210" y="10" width="40" height="40" as="geometry" />
        </mxCell>
        <mxCell id="VWwZF47ukzTrj9dWdjm5-25" value="&lt;font&gt;Validate&lt;/font&gt;&lt;div&gt;Item&lt;/div&gt;" style="rounded=1;whiteSpace=wrap;html=1;fontSize=8;fillColor=#B266FF;strokeColor=none;fontColor=#FFFFFF;fontStyle=1" vertex="1" parent="VWwZF47ukzTrj9dWdjm5-30">
          <mxGeometry x="330" y="10" width="40" height="40" as="geometry" />
        </mxCell>
        <mxCell id="VWwZF47ukzTrj9dWdjm5-26" value="&lt;div&gt;Update Related Items&lt;/div&gt;" style="rounded=1;whiteSpace=wrap;html=1;fontSize=8;fillColor=light-dark(#FF66FF,#EDEDED);strokeColor=none;fontColor=#FFFFFF;fontStyle=1;fillStyle=auto;" vertex="1" parent="VWwZF47ukzTrj9dWdjm5-30">
          <mxGeometry x="270" y="10" width="40" height="40" as="geometry" />
        </mxCell>
        <mxCell id="VWwZF47ukzTrj9dWdjm5-27" value="" style="rounded=1;whiteSpace=wrap;html=1;fontSize=8;fillColor=light-dark(#666666,#EDEDED);strokeColor=#808080;fontColor=#FFFFFF;fontStyle=1;fillStyle=hatch;" vertex="1" parent="VWwZF47ukzTrj9dWdjm5-30">
          <mxGeometry x="270" y="10" width="40" height="40" as="geometry" />
        </mxCell>
        <mxCell id="VWwZF47ukzTrj9dWdjm5-29" value="" style="rounded=1;whiteSpace=wrap;html=1;fontSize=8;fillColor=light-dark(#666666,#EDEDED);strokeColor=#808080;fontColor=#FFFFFF;fontStyle=1;fillStyle=hatch;" vertex="1" parent="VWwZF47ukzTrj9dWdjm5-30">
          <mxGeometry x="330" y="10" width="40" height="40" as="geometry" />
        </mxCell>
        <mxCell id="VWwZF47ukzTrj9dWdjm5-31" value="" style="group" vertex="1" connectable="0" parent="1">
          <mxGeometry x="1080" y="119.94" width="380" height="80" as="geometry" />
        </mxCell>
        <mxCell id="VWwZF47ukzTrj9dWdjm5-32" value="&amp;lt;T&amp;gt; API Service" style="rounded=1;whiteSpace=wrap;html=1;verticalAlign=bottom;" vertex="1" parent="VWwZF47ukzTrj9dWdjm5-31">
          <mxGeometry width="380" height="80" as="geometry" />
        </mxCell>
        <mxCell id="VWwZF47ukzTrj9dWdjm5-33" value="Get Item (3)" style="rounded=1;whiteSpace=wrap;html=1;fontSize=8;fillColor=light-dark(#61affe, #ededed);strokeColor=none;fontColor=#FFFFFF;fontStyle=1" vertex="1" parent="VWwZF47ukzTrj9dWdjm5-31">
          <mxGeometry x="10" y="10" width="40" height="40" as="geometry" />
        </mxCell>
        <mxCell id="VWwZF47ukzTrj9dWdjm5-34" value="Create&lt;div&gt;Item&lt;/div&gt;" style="rounded=1;whiteSpace=wrap;html=1;fontSize=8;fillColor=light-dark(#49cc90, #ededed);strokeColor=none;fontColor=#FFFFFF;fontStyle=1" vertex="1" parent="VWwZF47ukzTrj9dWdjm5-31">
          <mxGeometry x="60" y="10" width="40" height="40" as="geometry" />
        </mxCell>
        <mxCell id="VWwZF47ukzTrj9dWdjm5-35" value="&lt;div&gt;Put Item&lt;/div&gt;" style="rounded=1;whiteSpace=wrap;html=1;fontSize=8;fillColor=light-dark(#fca130, #ededed);strokeColor=none;fontColor=#FFFFFF;fontStyle=1" vertex="1" parent="VWwZF47ukzTrj9dWdjm5-31">
          <mxGeometry x="110" y="10" width="40" height="40" as="geometry" />
        </mxCell>
        <mxCell id="VWwZF47ukzTrj9dWdjm5-36" value="&lt;font&gt;Patch Item (2)&lt;/font&gt;" style="rounded=1;whiteSpace=wrap;html=1;fontSize=8;fillColor=light-dark(#50e3c2, #ededed);strokeColor=none;fontColor=#FFFFFF;fontStyle=1" vertex="1" parent="VWwZF47ukzTrj9dWdjm5-31">
          <mxGeometry x="160" y="10" width="40" height="40" as="geometry" />
        </mxCell>
        <mxCell id="VWwZF47ukzTrj9dWdjm5-37" value="&lt;font&gt;Delete&lt;/font&gt;&lt;div&gt;Item&lt;/div&gt;" style="rounded=1;whiteSpace=wrap;html=1;fontSize=8;fillColor=light-dark(#f93e3e, #ededed);strokeColor=none;fontColor=#FFFFFF;fontStyle=1" vertex="1" parent="VWwZF47ukzTrj9dWdjm5-31">
          <mxGeometry x="210" y="10" width="40" height="40" as="geometry" />
        </mxCell>
        <mxCell id="VWwZF47ukzTrj9dWdjm5-38" value="&lt;font&gt;Validate&lt;/font&gt;&lt;div&gt;Item&lt;/div&gt;" style="rounded=1;whiteSpace=wrap;html=1;fontSize=8;fillColor=#B266FF;strokeColor=none;fontColor=#FFFFFF;fontStyle=1" vertex="1" parent="VWwZF47ukzTrj9dWdjm5-31">
          <mxGeometry x="330" y="10" width="40" height="40" as="geometry" />
        </mxCell>
        <mxCell id="VWwZF47ukzTrj9dWdjm5-39" value="&lt;div&gt;Update Related Items&lt;/div&gt;" style="rounded=1;whiteSpace=wrap;html=1;fontSize=8;fillColor=light-dark(#FF66FF,#EDEDED);strokeColor=none;fontColor=#FFFFFF;fontStyle=1;fillStyle=auto;" vertex="1" parent="VWwZF47ukzTrj9dWdjm5-31">
          <mxGeometry x="270" y="10" width="40" height="40" as="geometry" />
        </mxCell>
        <mxCell id="VWwZF47ukzTrj9dWdjm5-42" value="" style="rounded=1;whiteSpace=wrap;html=1;fontSize=8;fillColor=light-dark(#000000,#EDEDED);strokeColor=none;fontColor=#FFFFFF;fontStyle=1;gradientColor=none;opacity=33;fillStyle=solid;" vertex="1" parent="VWwZF47ukzTrj9dWdjm5-31">
          <mxGeometry x="210" y="10" width="40" height="40" as="geometry" />
        </mxCell>
        <mxCell id="VWwZF47ukzTrj9dWdjm5-47" value="" style="rounded=1;whiteSpace=wrap;html=1;fontSize=8;fillColor=light-dark(#000000,#EDEDED);strokeColor=none;fontColor=#FFFFFF;fontStyle=1;gradientColor=none;opacity=33;fillStyle=solid;" vertex="1" parent="VWwZF47ukzTrj9dWdjm5-31">
          <mxGeometry x="160" y="10" width="40" height="40" as="geometry" />
        </mxCell>
        <mxCell id="VWwZF47ukzTrj9dWdjm5-48" value="" style="rounded=1;whiteSpace=wrap;html=1;fontSize=8;fillColor=light-dark(#000000,#EDEDED);strokeColor=none;fontColor=#FFFFFF;fontStyle=1;gradientColor=none;opacity=33;fillStyle=solid;" vertex="1" parent="VWwZF47ukzTrj9dWdjm5-31">
          <mxGeometry x="110" y="10" width="40" height="40" as="geometry" />
        </mxCell>
        <mxCell id="VWwZF47ukzTrj9dWdjm5-49" value="" style="rounded=1;whiteSpace=wrap;html=1;fontSize=8;fillColor=light-dark(#000000,#EDEDED);strokeColor=none;fontColor=#FFFFFF;fontStyle=1;gradientColor=none;opacity=33;fillStyle=solid;" vertex="1" parent="VWwZF47ukzTrj9dWdjm5-31">
          <mxGeometry x="60" y="10" width="40" height="40" as="geometry" />
        </mxCell>
        <mxCell id="VWwZF47ukzTrj9dWdjm5-50" value="" style="rounded=1;whiteSpace=wrap;html=1;fontSize=8;fillColor=light-dark(#000000,#EDEDED);strokeColor=none;fontColor=#FFFFFF;fontStyle=1;gradientColor=none;opacity=33;fillStyle=solid;" vertex="1" parent="VWwZF47ukzTrj9dWdjm5-31">
          <mxGeometry x="10" y="10" width="40" height="40" as="geometry" />
        </mxCell>
        <mxCell id="VWwZF47ukzTrj9dWdjm5-51" style="edgeStyle=orthogonalEdgeStyle;rounded=0;orthogonalLoop=1;jettySize=auto;html=1;exitX=0.5;exitY=0;exitDx=0;exitDy=0;entryX=0.5;entryY=0;entryDx=0;entryDy=0;" edge="1" parent="1" source="VWwZF47ukzTrj9dWdjm5-50" target="VWwZF47ukzTrj9dWdjm5-20">
          <mxGeometry relative="1" as="geometry" />
        </mxCell>
        <mxCell id="VWwZF47ukzTrj9dWdjm5-52" style="edgeStyle=orthogonalEdgeStyle;rounded=0;orthogonalLoop=1;jettySize=auto;html=1;exitX=0.5;exitY=0;exitDx=0;exitDy=0;entryX=0.5;entryY=0;entryDx=0;entryDy=0;" edge="1" parent="1" source="VWwZF47ukzTrj9dWdjm5-49" target="VWwZF47ukzTrj9dWdjm5-21">
          <mxGeometry relative="1" as="geometry">
            <Array as="points">
              <mxPoint x="1160" y="99.94" />
              <mxPoint x="720" y="99.94" />
            </Array>
          </mxGeometry>
        </mxCell>
        <mxCell id="VWwZF47ukzTrj9dWdjm5-53" style="edgeStyle=orthogonalEdgeStyle;rounded=0;orthogonalLoop=1;jettySize=auto;html=1;exitX=0.5;exitY=0;exitDx=0;exitDy=0;entryX=0.5;entryY=0;entryDx=0;entryDy=0;" edge="1" parent="1" source="VWwZF47ukzTrj9dWdjm5-48" target="VWwZF47ukzTrj9dWdjm5-22">
          <mxGeometry relative="1" as="geometry">
            <Array as="points">
              <mxPoint x="1210" y="89.94" />
              <mxPoint x="770" y="89.94" />
            </Array>
          </mxGeometry>
        </mxCell>
        <mxCell id="VWwZF47ukzTrj9dWdjm5-54" style="edgeStyle=orthogonalEdgeStyle;rounded=0;orthogonalLoop=1;jettySize=auto;html=1;exitX=0.5;exitY=0;exitDx=0;exitDy=0;entryX=0.5;entryY=0;entryDx=0;entryDy=0;" edge="1" parent="1" source="VWwZF47ukzTrj9dWdjm5-47" target="VWwZF47ukzTrj9dWdjm5-23">
          <mxGeometry relative="1" as="geometry">
            <Array as="points">
              <mxPoint x="1260" y="79.94" />
              <mxPoint x="820" y="79.94" />
            </Array>
          </mxGeometry>
        </mxCell>
        <mxCell id="VWwZF47ukzTrj9dWdjm5-55" style="edgeStyle=orthogonalEdgeStyle;rounded=0;orthogonalLoop=1;jettySize=auto;html=1;exitX=0.5;exitY=0;exitDx=0;exitDy=0;entryX=0.5;entryY=0;entryDx=0;entryDy=0;" edge="1" parent="1" source="VWwZF47ukzTrj9dWdjm5-42" target="VWwZF47ukzTrj9dWdjm5-24">
          <mxGeometry relative="1" as="geometry">
            <Array as="points">
              <mxPoint x="1310" y="69.94" />
              <mxPoint x="870" y="69.94" />
            </Array>
          </mxGeometry>
        </mxCell>
        <mxCell id="VWwZF47ukzTrj9dWdjm5-90" value="" style="group;rounded=1;" vertex="1" connectable="0" parent="1">
          <mxGeometry x="640" y="-80" width="380" height="80" as="geometry" />
        </mxCell>
        <mxCell id="VWwZF47ukzTrj9dWdjm5-91" value="&lt;div&gt;&lt;br&gt;&lt;/div&gt;Database Item Service Base" style="rounded=1;whiteSpace=wrap;html=1;verticalAlign=bottom;" vertex="1" parent="VWwZF47ukzTrj9dWdjm5-90">
          <mxGeometry width="380" height="80" as="geometry" />
        </mxCell>
        <mxCell id="VWwZF47ukzTrj9dWdjm5-92" value="GET" style="rounded=1;whiteSpace=wrap;html=1;fontSize=8;fillColor=light-dark(#61affe, #ededed);strokeColor=none;fontColor=#FFFFFF;fontStyle=1" vertex="1" parent="VWwZF47ukzTrj9dWdjm5-90">
          <mxGeometry x="10" y="10" width="40" height="40" as="geometry" />
        </mxCell>
        <mxCell id="VWwZF47ukzTrj9dWdjm5-93" value="POST" style="rounded=1;whiteSpace=wrap;html=1;fontSize=8;fillColor=light-dark(#49cc90, #ededed);strokeColor=none;fontColor=#FFFFFF;fontStyle=1" vertex="1" parent="VWwZF47ukzTrj9dWdjm5-90">
          <mxGeometry x="90" y="10" width="40" height="40" as="geometry" />
        </mxCell>
        <mxCell id="VWwZF47ukzTrj9dWdjm5-94" value="&lt;div&gt;PUT&lt;/div&gt;" style="rounded=1;whiteSpace=wrap;html=1;fontSize=8;fillColor=light-dark(#fca130, #ededed);strokeColor=none;fontColor=#FFFFFF;fontStyle=1" vertex="1" parent="VWwZF47ukzTrj9dWdjm5-90">
          <mxGeometry x="170" y="10" width="40" height="40" as="geometry" />
        </mxCell>
        <mxCell id="VWwZF47ukzTrj9dWdjm5-95" value="&lt;font&gt;PATCH&lt;/font&gt;" style="rounded=1;whiteSpace=wrap;html=1;fontSize=8;fillColor=light-dark(#50e3c2, #ededed);strokeColor=none;fontColor=#FFFFFF;fontStyle=1" vertex="1" parent="VWwZF47ukzTrj9dWdjm5-90">
          <mxGeometry x="250" y="10" width="40" height="40" as="geometry" />
        </mxCell>
        <mxCell id="VWwZF47ukzTrj9dWdjm5-96" value="&lt;font&gt;DELETE&lt;/font&gt;" style="rounded=1;whiteSpace=wrap;html=1;fontSize=8;fillColor=light-dark(#f93e3e, #ededed);strokeColor=none;fontColor=#FFFFFF;fontStyle=1" vertex="1" parent="VWwZF47ukzTrj9dWdjm5-90">
          <mxGeometry x="330" y="10" width="40" height="40" as="geometry" />
        </mxCell>
        <mxCell id="VWwZF47ukzTrj9dWdjm5-98" value="" style="group;rounded=1;" vertex="1" connectable="0" parent="1">
          <mxGeometry x="1080" y="-80" width="380" height="80" as="geometry" />
        </mxCell>
        <mxCell id="VWwZF47ukzTrj9dWdjm5-99" value="&lt;div&gt;&lt;br&gt;&lt;/div&gt;&amp;lt;T&amp;gt; Item Service" style="rounded=1;whiteSpace=wrap;html=1;verticalAlign=bottom;" vertex="1" parent="VWwZF47ukzTrj9dWdjm5-98">
          <mxGeometry width="380" height="80" as="geometry" />
        </mxCell>
        <mxCell id="VWwZF47ukzTrj9dWdjm5-100" value="GET" style="rounded=1;whiteSpace=wrap;html=1;fontSize=8;fillColor=light-dark(#61affe, #ededed);strokeColor=none;fontColor=#FFFFFF;fontStyle=1" vertex="1" parent="VWwZF47ukzTrj9dWdjm5-98">
          <mxGeometry x="10" y="10" width="40" height="40" as="geometry" />
        </mxCell>
        <mxCell id="VWwZF47ukzTrj9dWdjm5-101" value="POST" style="rounded=1;whiteSpace=wrap;html=1;fontSize=8;fillColor=light-dark(#49cc90, #ededed);strokeColor=none;fontColor=#FFFFFF;fontStyle=1" vertex="1" parent="VWwZF47ukzTrj9dWdjm5-98">
          <mxGeometry x="90" y="10" width="40" height="40" as="geometry" />
        </mxCell>
        <mxCell id="VWwZF47ukzTrj9dWdjm5-102" value="&lt;div&gt;PUT&lt;/div&gt;" style="rounded=1;whiteSpace=wrap;html=1;fontSize=8;fillColor=light-dark(#fca130, #ededed);strokeColor=none;fontColor=#FFFFFF;fontStyle=1" vertex="1" parent="VWwZF47ukzTrj9dWdjm5-98">
          <mxGeometry x="170" y="10" width="40" height="40" as="geometry" />
        </mxCell>
        <mxCell id="VWwZF47ukzTrj9dWdjm5-103" value="&lt;font&gt;PATCH&lt;/font&gt;" style="rounded=1;whiteSpace=wrap;html=1;fontSize=8;fillColor=light-dark(#50e3c2, #ededed);strokeColor=none;fontColor=#FFFFFF;fontStyle=1" vertex="1" parent="VWwZF47ukzTrj9dWdjm5-98">
          <mxGeometry x="250" y="10" width="40" height="40" as="geometry" />
        </mxCell>
        <mxCell id="VWwZF47ukzTrj9dWdjm5-104" value="&lt;font&gt;DELETE&lt;/font&gt;" style="rounded=1;whiteSpace=wrap;html=1;fontSize=8;fillColor=light-dark(#f93e3e, #ededed);strokeColor=none;fontColor=#FFFFFF;fontStyle=1" vertex="1" parent="VWwZF47ukzTrj9dWdjm5-98">
          <mxGeometry x="330" y="10" width="40" height="40" as="geometry" />
        </mxCell>
        <mxCell id="VWwZF47ukzTrj9dWdjm5-105" value="" style="rounded=1;whiteSpace=wrap;html=1;fontSize=8;fillColor=light-dark(#000000,#EDEDED);strokeColor=none;fontColor=#FFFFFF;fontStyle=1;gradientColor=none;opacity=33;fillStyle=solid;" vertex="1" parent="VWwZF47ukzTrj9dWdjm5-98">
          <mxGeometry x="10" y="10" width="40" height="40" as="geometry" />
        </mxCell>
        <mxCell id="VWwZF47ukzTrj9dWdjm5-106" value="" style="rounded=1;whiteSpace=wrap;html=1;fontSize=8;fillColor=light-dark(#000000,#EDEDED);strokeColor=none;fontColor=#FFFFFF;fontStyle=1;gradientColor=none;opacity=33;fillStyle=solid;" vertex="1" parent="VWwZF47ukzTrj9dWdjm5-98">
          <mxGeometry x="90" y="10" width="40" height="40" as="geometry" />
        </mxCell>
        <mxCell id="VWwZF47ukzTrj9dWdjm5-107" value="" style="rounded=1;whiteSpace=wrap;html=1;fontSize=8;fillColor=light-dark(#000000,#EDEDED);strokeColor=none;fontColor=#FFFFFF;fontStyle=1;gradientColor=none;opacity=33;fillStyle=solid;" vertex="1" parent="VWwZF47ukzTrj9dWdjm5-98">
          <mxGeometry x="170" y="10" width="40" height="40" as="geometry" />
        </mxCell>
        <mxCell id="VWwZF47ukzTrj9dWdjm5-108" value="" style="rounded=1;whiteSpace=wrap;html=1;fontSize=8;fillColor=light-dark(#000000,#EDEDED);strokeColor=none;fontColor=#FFFFFF;fontStyle=1;gradientColor=none;opacity=33;fillStyle=solid;" vertex="1" parent="VWwZF47ukzTrj9dWdjm5-98">
          <mxGeometry x="250" y="10" width="40" height="40" as="geometry" />
        </mxCell>
        <mxCell id="VWwZF47ukzTrj9dWdjm5-109" value="" style="rounded=1;whiteSpace=wrap;html=1;fontSize=8;fillColor=light-dark(#000000,#EDEDED);strokeColor=none;fontColor=#FFFFFF;fontStyle=1;gradientColor=none;opacity=33;fillStyle=solid;" vertex="1" parent="VWwZF47ukzTrj9dWdjm5-98">
          <mxGeometry x="330" y="10" width="40" height="40" as="geometry" />
        </mxCell>
        <mxCell id="VWwZF47ukzTrj9dWdjm5-110" style="edgeStyle=orthogonalEdgeStyle;rounded=0;orthogonalLoop=1;jettySize=auto;html=1;exitX=0.5;exitY=0;exitDx=0;exitDy=0;entryX=0.5;entryY=0;entryDx=0;entryDy=0;" edge="1" parent="1" source="VWwZF47ukzTrj9dWdjm5-105" target="VWwZF47ukzTrj9dWdjm5-92">
          <mxGeometry relative="1" as="geometry" />
        </mxCell>
        <mxCell id="VWwZF47ukzTrj9dWdjm5-111" style="edgeStyle=orthogonalEdgeStyle;rounded=0;orthogonalLoop=1;jettySize=auto;html=1;exitX=0.5;exitY=0;exitDx=0;exitDy=0;entryX=0.5;entryY=0;entryDx=0;entryDy=0;" edge="1" parent="1" source="VWwZF47ukzTrj9dWdjm5-106" target="VWwZF47ukzTrj9dWdjm5-93">
          <mxGeometry relative="1" as="geometry">
            <Array as="points">
              <mxPoint x="1190" y="-100" />
              <mxPoint x="750" y="-100" />
            </Array>
          </mxGeometry>
        </mxCell>
        <mxCell id="VWwZF47ukzTrj9dWdjm5-112" style="edgeStyle=orthogonalEdgeStyle;rounded=0;orthogonalLoop=1;jettySize=auto;html=1;exitX=0.5;exitY=0;exitDx=0;exitDy=0;entryX=0.5;entryY=0;entryDx=0;entryDy=0;" edge="1" parent="1" source="VWwZF47ukzTrj9dWdjm5-107" target="VWwZF47ukzTrj9dWdjm5-94">
          <mxGeometry relative="1" as="geometry">
            <Array as="points">
              <mxPoint x="1270" y="-110" />
              <mxPoint x="830" y="-110" />
            </Array>
          </mxGeometry>
        </mxCell>
        <mxCell id="VWwZF47ukzTrj9dWdjm5-113" style="edgeStyle=orthogonalEdgeStyle;rounded=0;orthogonalLoop=1;jettySize=auto;html=1;exitX=0.5;exitY=0;exitDx=0;exitDy=0;entryX=0.5;entryY=0;entryDx=0;entryDy=0;" edge="1" parent="1" source="VWwZF47ukzTrj9dWdjm5-108" target="VWwZF47ukzTrj9dWdjm5-95">
          <mxGeometry relative="1" as="geometry">
            <Array as="points">
              <mxPoint x="1350" y="-120" />
              <mxPoint x="910" y="-120" />
            </Array>
          </mxGeometry>
        </mxCell>
        <mxCell id="VWwZF47ukzTrj9dWdjm5-114" style="edgeStyle=orthogonalEdgeStyle;rounded=0;orthogonalLoop=1;jettySize=auto;html=1;exitX=0.5;exitY=0;exitDx=0;exitDy=0;entryX=0.5;entryY=0;entryDx=0;entryDy=0;" edge="1" parent="1" source="VWwZF47ukzTrj9dWdjm5-109" target="VWwZF47ukzTrj9dWdjm5-96">
          <mxGeometry relative="1" as="geometry">
            <Array as="points">
              <mxPoint x="1430" y="-130" />
              <mxPoint x="990" y="-130" />
            </Array>
          </mxGeometry>
        </mxCell>
        <mxCell id="VWwZF47ukzTrj9dWdjm5-115" value="" style="shape=flexArrow;endArrow=classic;html=1;rounded=0;strokeColor=none;fillColor=#000000;" edge="1" parent="1">
          <mxGeometry width="50" height="50" relative="1" as="geometry">
            <mxPoint x="480" y="-40" as="sourcePoint" />
            <mxPoint x="600" y="-40" as="targetPoint" />
          </mxGeometry>
        </mxCell>
        <mxCell id="VWwZF47ukzTrj9dWdjm5-116" value="" style="shape=flexArrow;endArrow=classic;html=1;rounded=0;strokeColor=none;fillColor=#000000;" edge="1" parent="1">
          <mxGeometry width="50" height="50" relative="1" as="geometry">
            <mxPoint x="480" y="159.23" as="sourcePoint" />
            <mxPoint x="600" y="159.23" as="targetPoint" />
          </mxGeometry>
        </mxCell>
        <mxCell id="VWwZF47ukzTrj9dWdjm5-123" value="" style="group" vertex="1" connectable="0" parent="1">
          <mxGeometry x="680" y="230" width="130" height="49.94" as="geometry" />
        </mxCell>
        <mxCell id="VWwZF47ukzTrj9dWdjm5-122" value="" style="rounded=0;whiteSpace=wrap;html=1;dashed=1;" vertex="1" parent="VWwZF47ukzTrj9dWdjm5-123">
          <mxGeometry width="130" height="49.94" as="geometry" />
        </mxCell>
        <mxCell id="VWwZF47ukzTrj9dWdjm5-118" value="&lt;h1 style=&quot;margin-top: 0px;&quot;&gt;&lt;font style=&quot;font-size: 10px;&quot;&gt;Get Item (3)&lt;/font&gt;&lt;/h1&gt;" style="text;html=1;align=left;verticalAlign=middle;whiteSpace=wrap;rounded=0;" vertex="1" parent="VWwZF47ukzTrj9dWdjm5-123">
          <mxGeometry x="8.666666666666668" y="8.373273333333335" width="112.66666666666667" height="24.92006" as="geometry" />
        </mxCell>
        <mxCell id="VWwZF47ukzTrj9dWdjm5-119" value="&lt;font style=&quot;font-size: 8px;&quot;&gt;GetById, ListByPartition, ListAll&lt;/font&gt;" style="text;html=1;align=left;verticalAlign=middle;whiteSpace=wrap;rounded=0;" vertex="1" parent="VWwZF47ukzTrj9dWdjm5-123">
          <mxGeometry x="8.666666666666668" y="25.01994" width="112.66666666666667" height="16.646666666666665" as="geometry" />
        </mxCell>
        <mxCell id="VWwZF47ukzTrj9dWdjm5-124" value="" style="group" vertex="1" connectable="0" parent="1">
          <mxGeometry x="860" y="230" width="120" height="50" as="geometry" />
        </mxCell>
        <mxCell id="VWwZF47ukzTrj9dWdjm5-125" value="" style="rounded=0;whiteSpace=wrap;html=1;dashed=1;" vertex="1" parent="VWwZF47ukzTrj9dWdjm5-124">
          <mxGeometry width="120" height="50" as="geometry" />
        </mxCell>
        <mxCell id="VWwZF47ukzTrj9dWdjm5-126" value="&lt;h1 style=&quot;margin-top: 0px;&quot;&gt;&lt;font style=&quot;font-size: 10px;&quot;&gt;Patch (2)&lt;/font&gt;&lt;/h1&gt;" style="text;html=1;align=left;verticalAlign=middle;whiteSpace=wrap;rounded=0;" vertex="1" parent="VWwZF47ukzTrj9dWdjm5-124">
          <mxGeometry x="8" y="8.383333333333336" width="104" height="24.950000000000003" as="geometry" />
        </mxCell>
        <mxCell id="VWwZF47ukzTrj9dWdjm5-127" value="&lt;font style=&quot;font-size: 8px;&quot;&gt;PatchItem, MigrateItem&lt;/font&gt;" style="text;html=1;align=left;verticalAlign=middle;whiteSpace=wrap;rounded=0;" vertex="1" parent="VWwZF47ukzTrj9dWdjm5-124">
          <mxGeometry x="8" y="25.050000000000004" width="104" height="16.666666666666668" as="geometry" />
        </mxCell>
      </root>
    </mxGraphModel>
  </diagram>
</mxfile>
